<svg width="72" height="18" viewBox="0 0 72 18" fill="none" xmlns="http://www.w3.org/2000/svg">
<path d="M7.60826 4.97065C8.19821 3.4999 8.49319 2.76453 9.00044 2.76453C9.50768 2.76453 9.80266 3.4999 10.3926 4.97065L10.4201 5.03914C10.7534 5.87004 10.92 6.28549 11.2597 6.538C11.5993 6.79052 12.0451 6.83045 12.9368 6.91031L13.098 6.92474C14.5574 7.05544 15.2871 7.12079 15.4432 7.58503C15.5993 8.04927 15.0574 8.54227 13.9737 9.52829L13.612 9.85737C13.0633 10.3565 12.789 10.6061 12.6612 10.9332C12.6373 10.9942 12.6175 11.0567 12.6018 11.1203C12.5178 11.4613 12.5981 11.8234 12.7587 12.5475L12.8088 12.7728C13.104 14.1036 13.2516 14.769 12.9939 15.056C12.8976 15.1632 12.7724 15.2404 12.6333 15.2784C12.2612 15.3799 11.7328 14.9494 10.6761 14.0883C9.98221 13.5229 9.63527 13.2402 9.23694 13.1766C9.08026 13.1516 8.92061 13.1516 8.76393 13.1766C8.3656 13.2402 8.01866 13.5229 7.32478 14.0883C6.26807 14.9494 5.73971 15.3799 5.36756 15.2784C5.2285 15.2404 5.10331 15.1632 5.007 15.056C4.74924 14.769 4.89686 14.1036 5.19212 12.7728L5.24213 12.5475C5.40278 11.8234 5.48311 11.4613 5.39907 11.1203C5.38339 11.0567 5.36357 10.9942 5.33972 10.9332C5.21186 10.6061 4.93755 10.3565 4.38892 9.85737L4.02721 9.52829C2.94342 8.54227 2.40153 8.04927 2.55767 7.58503C2.7138 7.12079 3.44348 7.05544 4.90284 6.92474L5.06404 6.91031C5.95573 6.83045 6.40157 6.79052 6.74121 6.538C7.08085 6.28549 7.2475 5.87004 7.58079 5.03914L7.60826 4.97065Z" fill="#F8F8FB" stroke="#F8F8FB" stroke-width="1.4"/>
<path d="M25.6083 4.97065C26.1982 3.4999 26.4932 2.76453 27.0004 2.76453C27.5077 2.76453 27.8027 3.4999 28.3926 4.97065L28.4201 5.03914C28.7534 5.87004 28.92 6.28549 29.2597 6.538C29.5993 6.79052 30.0451 6.83045 30.9368 6.91031L31.098 6.92474C32.5574 7.05544 33.2871 7.12079 33.4432 7.58503C33.5993 8.04927 33.0574 8.54227 31.9737 9.52829L31.612 9.85737C31.0633 10.3565 30.789 10.6061 30.6612 10.9332C30.6373 10.9942 30.6175 11.0567 30.6018 11.1203C30.5178 11.4613 30.5981 11.8234 30.7587 12.5475L30.8088 12.7728C31.104 14.1036 31.2516 14.769 30.9939 15.056C30.8976 15.1632 30.7724 15.2404 30.6333 15.2784C30.2612 15.3799 29.7328 14.9494 28.6761 14.0883C27.9822 13.5229 27.6353 13.2402 27.2369 13.1766C27.0803 13.1516 26.9206 13.1516 26.7639 13.1766C26.3656 13.2402 26.0187 13.5229 25.3248 14.0883C24.2681 14.9494 23.7397 15.3799 23.3676 15.2784C23.2285 15.2404 23.1033 15.1632 23.007 15.056C22.7492 14.769 22.8969 14.1036 23.1921 12.7728L23.2421 12.5475C23.4028 11.8234 23.4831 11.4613 23.3991 11.1203C23.3834 11.0567 23.3636 10.9942 23.3397 10.9332C23.2119 10.6061 22.9375 10.3565 22.3889 9.85737L22.0272 9.52829C20.9434 8.54227 20.4015 8.04927 20.5577 7.58503C20.7138 7.12079 21.4435 7.05544 22.9028 6.92474L23.064 6.91031C23.9557 6.83045 24.4016 6.79052 24.7412 6.538C25.0808 6.28549 25.2475 5.87004 25.5808 5.03914L25.6083 4.97065Z" fill="#F8F8FB" stroke="#F8F8FB" stroke-width="1.4"/>
<path d="M43.6083 4.97065C44.1982 3.4999 44.4932 2.76453 45.0004 2.76453C45.5077 2.76453 45.8027 3.4999 46.3926 4.97065L46.4201 5.03914C46.7534 5.87004 46.92 6.28549 47.2597 6.538C47.5993 6.79052 48.0451 6.83045 48.9368 6.91031L49.098 6.92474C50.5574 7.05544 51.2871 7.12079 51.4432 7.58503C51.5993 8.04927 51.0574 8.54227 49.9737 9.52829L49.612 9.85737C49.0633 10.3565 48.789 10.6061 48.6612 10.9332C48.6373 10.9942 48.6175 11.0567 48.6018 11.1203C48.5178 11.4613 48.5981 11.8234 48.7587 12.5475L48.8088 12.7728C49.104 14.1036 49.2516 14.769 48.9939 15.056C48.8976 15.1632 48.7724 15.2404 48.6333 15.2784C48.2612 15.3799 47.7328 14.9494 46.6761 14.0883C45.9822 13.5229 45.6353 13.2402 45.2369 13.1766C45.0803 13.1516 44.9206 13.1516 44.7639 13.1766C44.3656 13.2402 44.0187 13.5229 43.3248 14.0883C42.2681 14.9494 41.7397 15.3799 41.3676 15.2784C41.2285 15.2404 41.1033 15.1632 41.007 15.056C40.7492 14.769 40.8969 14.1036 41.1921 12.7728L41.2421 12.5475C41.4028 11.8234 41.4831 11.4613 41.3991 11.1203C41.3834 11.0567 41.3636 10.9942 41.3397 10.9332C41.2119 10.6061 40.9375 10.3565 40.3889 9.85737L40.0272 9.52829C38.9434 8.54227 38.4015 8.04927 38.5577 7.58503C38.7138 7.12079 39.4435 7.05544 40.9028 6.92474L41.064 6.91031C41.9557 6.83045 42.4016 6.79052 42.7412 6.538C43.0808 6.28549 43.2475 5.87004 43.5808 5.03914L43.6083 4.97065Z" fill="#F8F8FB" stroke="#F8F8FB" stroke-width="1.4"/>
<path d="M61.6083 4.97065C62.1982 3.4999 62.4932 2.76453 63.0004 2.76453C63.5077 2.76453 63.8027 3.4999 64.3926 4.97065L64.4201 5.03914C64.7534 5.87004 64.92 6.28549 65.2597 6.538C65.5993 6.79052 66.0451 6.83045 66.9368 6.91031L67.098 6.92474C68.5574 7.05544 69.2871 7.12079 69.4432 7.58503C69.5993 8.04927 69.0574 8.54227 67.9737 9.52829L67.612 9.85737C67.0633 10.3565 66.789 10.6061 66.6612 10.9332C66.6373 10.9942 66.6175 11.0567 66.6018 11.1203C66.5178 11.4613 66.5981 11.8234 66.7587 12.5475L66.8088 12.7728C67.104 14.1036 67.2516 14.769 66.9939 15.056C66.8976 15.1632 66.7724 15.2404 66.6333 15.2784C66.2612 15.3799 65.7328 14.9494 64.6761 14.0883C63.9822 13.5229 63.6353 13.2402 63.2369 13.1766C63.0803 13.1516 62.9206 13.1516 62.7639 13.1766C62.3656 13.2402 62.0187 13.5229 61.3248 14.0883C60.2681 14.9494 59.7397 15.3799 59.3676 15.2784C59.2285 15.2404 59.1033 15.1632 59.007 15.056C58.7492 14.769 58.8969 14.1036 59.1921 12.7728L59.2421 12.5475C59.4028 11.8234 59.4831 11.4613 59.3991 11.1203C59.3834 11.0567 59.3636 10.9942 59.3397 10.9332C59.2119 10.6061 58.9375 10.3565 58.3889 9.85737L58.0272 9.52829C56.9434 8.54227 56.4015 8.04927 56.5577 7.58503C56.7138 7.12079 57.4435 7.05544 58.9028 6.92474L59.064 6.91031C59.9557 6.83045 60.4016 6.79052 60.7412 6.538C61.0808 6.28549 61.2475 5.87004 61.5808 5.03914L61.6083 4.97065Z" fill="#F8F8FB" stroke="#F8F8FB" stroke-width="1.4"/>
</svg>
